<svg width="35" height="35" viewBox="0 0 35 35" fill="none" xmlns="http://www.w3.org/2000/svg">
<path d="M11.6641 27.4844C11.6641 27.3438 11.5234 27.2031 11.3125 27.2031C11.1016 27.2031 10.9609 27.3438 10.9609 27.4844C10.9609 27.625 11.1016 27.7656 11.3125 27.6953C11.5234 27.6953 11.6641 27.625 11.6641 27.4844ZM9.48438 27.1328C9.48438 27.2734 9.625 27.4844 9.83594 27.4844C9.97656 27.5547 10.1875 27.4844 10.2578 27.3438C10.2578 27.2031 10.1875 27.0625 9.97656 26.9922C9.76562 26.9219 9.55469 26.9922 9.48438 27.1328ZM12.6484 27.0625C12.4375 27.0625 12.2969 27.2031 12.2969 27.4141C12.2969 27.5547 12.5078 27.625 12.7188 27.5547C12.9297 27.4844 13.0703 27.4141 13 27.2734C13 27.1328 12.7891 26.9922 12.6484 27.0625ZM17.2188 0.0625C7.51562 0.0625 0.0625 7.51562 0.0625 17.2188C0.0625 25.0234 4.91406 31.7031 11.9453 34.0938C12.8594 34.2344 13.1406 33.6719 13.1406 33.25C13.1406 32.7578 13.1406 30.3672 13.1406 28.8906C13.1406 28.8906 8.21875 29.9453 7.16406 26.7812C7.16406 26.7812 6.39062 24.7422 5.26562 24.25C5.26562 24.25 3.64844 23.125 5.33594 23.125C5.33594 23.125 7.09375 23.2656 8.07812 24.9531C9.625 27.6953 12.1562 26.9219 13.2109 26.4297C13.3516 25.3047 13.7734 24.5312 14.3359 24.0391C10.3984 23.6172 6.39062 23.0547 6.39062 16.3047C6.39062 14.3359 6.95312 13.4219 8.07812 12.1562C7.86719 11.6641 7.30469 9.83594 8.28906 7.375C9.69531 6.95312 13.1406 9.27344 13.1406 9.27344C14.5469 8.85156 16.0234 8.71094 17.5 8.71094C19.0469 8.71094 20.5234 8.85156 21.9297 9.27344C21.9297 9.27344 25.3047 6.88281 26.7812 7.375C27.7656 9.83594 27.1328 11.6641 26.9922 12.1562C28.1172 13.4219 28.8203 14.3359 28.8203 16.3047C28.8203 23.0547 24.6719 23.6172 20.7344 24.0391C21.3672 24.6016 21.9297 25.6562 21.9297 27.3438C21.9297 29.6641 21.8594 32.6172 21.8594 33.1797C21.8594 33.6719 22.2109 34.2344 23.125 34.0234C30.1562 31.7031 34.9375 25.0234 34.9375 17.2188C34.9375 7.51562 26.9922 0.0625 17.2188 0.0625ZM6.88281 24.3203C6.74219 24.3906 6.8125 24.6016 6.88281 24.7422C7.02344 24.8125 7.16406 24.8828 7.30469 24.8125C7.375 24.7422 7.375 24.5312 7.23438 24.3906C7.09375 24.3203 6.95312 24.25 6.88281 24.3203ZM6.10938 23.7578C6.03906 23.8984 6.10938 23.9688 6.25 24.0391C6.39062 24.1094 6.53125 24.1094 6.60156 23.9688C6.60156 23.8984 6.53125 23.8281 6.39062 23.7578C6.25 23.6875 6.17969 23.6875 6.10938 23.7578ZM8.35938 26.2891C8.28906 26.3594 8.28906 26.5703 8.5 26.7109C8.64062 26.8516 8.85156 26.9219 8.92188 26.7812C8.99219 26.7109 8.99219 26.5 8.85156 26.3594C8.71094 26.2188 8.5 26.1484 8.35938 26.2891ZM7.58594 25.2344C7.44531 25.3047 7.44531 25.5156 7.58594 25.6562C7.72656 25.7969 7.86719 25.8672 8.00781 25.7969C8.07812 25.7266 8.07812 25.5156 8.00781 25.375C7.86719 25.2344 7.72656 25.1641 7.58594 25.2344Z" fill="black"/>
</svg>
